<?xml version="1.0" standalone="no"?><!DOCTYPE svg PUBLIC "-//W3C//DTD SVG 1.1//EN" "http://www.w3.org/Graphics/SVG/1.1/DTD/svg11.dtd"><svg t="1717237767224" class="icon" viewBox="0 0 1024 1024" version="1.1" xmlns="http://www.w3.org/2000/svg" p-id="1259" xmlns:xlink="http://www.w3.org/1999/xlink" width="200" height="200"><path d="M578.925714 342.966857s-176.128 160.914286-168.228571 358.4c7.314286 182.857143-153.6 223.085714-153.6 223.085714h453.485714s-190.171429-29.257143-204.8-237.714285c-14.628571-212.114286 73.142857-343.771429 73.142857-343.771429z" fill="#F7873C" p-id="1260"></path><path d="M710.582857 939.081143h-453.485714a14.628571 14.628571 0 0 1-3.510857-28.818286c6.070857-1.536 149.211429-39.936 142.482285-208.310857-8.045714-201.654857 165.595429-363.008 172.982858-369.737143a14.628571 14.628571 0 0 1 21.942857 18.870857c-0.877714 1.316571-84.845714 130.56-70.729143 334.701715 13.385143 194.413714 190.610286 223.963429 192.438857 224.256a14.628571 14.628571 0 0 1-2.267429 29.257142z m-388.461714-29.257143H629.028571c-58.514286-31.744-129.389714-95.890286-138.093714-222.061714a659.456 659.456 0 0 1 32.036572-258.486857c-47.323429 64.073143-102.4 162.742857-97.938286 271.506285 4.900571 115.126857-54.198857 177.444571-103.204572 209.042286z m256.804571-566.857143z" fill="#333333" p-id="1261"></path><path d="M864.036571 491.666286a13.897143 13.897143 0 0 1-6.509714-1.682286 991.232 991.232 0 0 0-173.860571-71.094857 1220.315429 1220.315429 0 0 1-126.902857-48.713143 490.934857 490.934857 0 0 0-55.661715-21.942857 95.890286 95.890286 0 0 0-17.846857-1.170286c-8.777143 0-19.236571 0-31.378286 0.877714-16.237714 0.658286-34.742857 1.389714-55.515428 1.389715a666.331429 666.331429 0 0 1-80.457143-4.534857 364.763429 364.763429 0 0 0-42.130286-2.340572 630.198857 630.198857 0 0 0-163.474285 25.014857 13.531429 13.531429 0 0 1-16.018286-6.363428 13.531429 13.531429 0 0 1 2.925714-16.896c5.12-4.534857 126.610286-109.714286 240.054857-109.714286 4.242286 0 8.411429 0 12.580572 0.438857 48.566857 3.510857 86.528 10.532571 116.077714 21.504a264.996571 264.996571 0 0 1 34.230857 15.872c5.924571 3.145143 11.044571 5.924571 16.237714 8.118857 5.339429 0 10.971429-0.512 17.554286-1.170285 8.630857-0.804571 17.188571-1.462857 27.648-1.462858h10.166857c31.451429 1.389714 69.193143 9.728 115.273143 25.453715 110.226286 38.034286 185.563429 162.450286 188.781714 167.716571a13.677714 13.677714 0 0 1-11.776 20.699429z" fill="#7DAE54" p-id="1262"></path><path d="M337.115429 248.685714c3.876571 0 7.753143 0 11.556571 0.438857 55.661714 3.949714 89.307429 12.068571 112.347429 20.626286a241.371429 241.371429 0 0 1 32.548571 15.140572 183.369143 183.369143 0 0 0 19.968 9.654857h2.633143c6.070857 0 12.141714-0.512 18.944-1.170286s16.091429-1.462857 26.331428-1.462857h9.581715c24.576 1.097143 58.514286 6.729143 111.469714 24.795428 106.715429 36.571429 181.540571 161.426286 181.540571 161.426286A997.814857 997.814857 0 0 0 687.542857 405.796571c-71.021714-20.918857-160.914286-66.340571-183.734857-70.948571a105.837714 105.837714 0 0 0-20.553143-1.462857c-20.845714 0-50.834286 2.340571-86.893714 2.340571a655.36 655.36 0 0 1-78.994286-4.461714 362.788571 362.788571 0 0 0-43.885714-2.486857 636.708571 636.708571 0 0 0-167.424 25.673143S227.474286 248.685714 337.115429 248.685714m0-27.282285C218.624 221.037714 93.330286 329.142857 87.771429 333.897143a27.355429 27.355429 0 0 0 18.285714 47.908571 29.257143 29.257143 0 0 0 8.192-1.462857 609.499429 609.499429 0 0 1 159.378286-24.502857A337.700571 337.700571 0 0 1 314.514286 358.4a692.443429 692.443429 0 0 0 82.212571 4.608c21.065143 0 39.643429-0.731429 56.100572-1.389714 11.995429-0.512 21.942857-0.950857 30.793142-0.950857a79.067429 79.067429 0 0 1 15.140572 0.950857 562.322286 562.322286 0 0 1 53.028571 21.138285A1238.235429 1238.235429 0 0 0 680.228571 431.981714a978.139429 978.139429 0 0 1 171.081143 69.997715 27.062857 27.062857 0 0 0 13.092572 3.364571 27.355429 27.355429 0 0 0 23.478857-41.398857c-3.291429-5.412571-81.334857-133.997714-196.242286-173.275429-47.981714-16.164571-86.601143-24.722286-119.369143-26.185143h-10.825143c-11.044571 0-19.968 0.731429-28.818285 1.536-5.046857 0.512-9.508571 0.877714-13.677715 1.024-3.803429-1.755429-7.899429-3.949714-12.434285-6.436571a268.726857 268.726857 0 0 0-35.986286-16.603429c-30.793143-11.483429-69.997714-18.724571-119.881143-21.942857-4.388571 0-8.923429-0.438857-13.531428-0.438857z" fill="#333333" p-id="1263"></path><path d="M229.961143 590.628571a14.189714 14.189714 0 0 1-6.582857-1.682285 13.604571 13.604571 0 0 1-6.582857-15.433143c1.536-6.070857 39.643429-148.845714 137.508571-212.114286 40.886857-26.550857 75.410286-43.885714 105.545143-52.882286A251.465143 251.465143 0 0 1 496.786286 299.885714c6.436571-1.024 12.068571-1.901714 17.334857-3.218285 4.461714-3.364571 8.850286-7.314286 13.750857-11.849143a270.628571 270.628571 0 0 1 29.257143-23.771429c25.965714-17.846857 61.074286-33.938286 107.300571-49.225143a179.492571 179.492571 0 0 1 55.734857-8.411428c99.181714 0 200.996571 68.608 205.312 71.533714a13.677714 13.677714 0 0 1-7.68 24.941714 11.922286 11.922286 0 0 1-3.145142 0 389.705143 389.705143 0 0 0-80.457143-8.118857 305.152 305.152 0 0 0-109.714286 18.505143 822.491429 822.491429 0 0 1-131.657143 36.571429 274.432 274.432 0 0 0-47.616 12.288 499.419429 499.419429 0 0 0-48.566857 34.889142 1212.050286 1212.050286 0 0 1-111.177143 78.262858 757.321143 757.321143 0 0 0-145.554286 114.029714 13.385143 13.385143 0 0 1-9.947428 4.315428z" fill="#5E7536" p-id="1264"></path><path d="M720.237714 217.380571c96.109714 0 197.485714 69.12 197.485715 69.12A402.285714 402.285714 0 0 0 833.828571 277.942857a321.828571 321.828571 0 0 0-114.688 19.382857C636.342857 329.142857 564.150857 334.701714 539.428571 346.477714c-20.845714 10.020571-96.987429 76.141714-160.914285 113.737143a758.930286 758.930286 0 0 0-148.626286 117.028572s37.156571-142.994286 131.657143-204.434286c46.811429-30.427429 78.482286-43.885714 102.034286-51.2a246.345143 246.345143 0 0 1 35.108571-7.314286 170.203429 170.203429 0 0 0 21.211429-4.169143 170.496 170.496 0 0 0 16.969142-14.628571 245.248 245.248 0 0 1 27.867429-22.601143c20.260571-13.970286 51.2-30.061714 103.862857-47.542857a164.717714 164.717714 0 0 1 51.2-7.68m0-27.355429a190.902857 190.902857 0 0 0-59.977143 9.142857c-47.542857 15.652571-83.748571 32.329143-110.811428 51.2a276.553143 276.553143 0 0 0-30.793143 24.941715c-3.803429 3.510857-7.314286 6.656-10.532572 9.289143-4.022857 0.877714-8.484571 1.536-13.458285 2.340571a272.603429 272.603429 0 0 0-38.765715 8.411429c-31.378286 9.435429-67.072 27.282286-108.982857 54.564571-102.4 66.413714-141.750857 214.235429-143.36 220.452571a27.355429 27.355429 0 0 0 13.165715 30.793143 27.940571 27.940571 0 0 0 13.238857 3.437715 27.501714 27.501714 0 0 0 19.894857-8.557715 738.304 738.304 0 0 1 143.140571-112.566857 1222.948571 1222.948571 0 0 0 112.493715-79.140571 567.222857 567.222857 0 0 1 46.226285-33.499429 287.378286 287.378286 0 0 1 44.544-11.190857 835.584 835.584 0 0 0 133.339429-37.010286 292.571429 292.571429 0 0 1 104.667428-17.554285 379.172571 379.172571 0 0 1 77.531429 7.753142 25.819429 25.819429 0 0 0 6.217143 0.731429 27.355429 27.355429 0 0 0 15.433143-49.883429C928.914286 260.900571 823.588571 190.171429 720.237714 190.171429z" fill="#333333" p-id="1265"></path><path d="M521.581714 383.926857a14.628571 14.628571 0 0 1-13.897143-10.020571c0-0.877714-30.208-88.795429-92.745142-128.219429-96.768-60.928-179.785143-117.028571-180.589715-117.028571a14.628571 14.628571 0 0 1 6.363429-26.624 412.086857 412.086857 0 0 1 44.690286-2.194286c59.392 0 140.580571 10.24 190.171428 59.245714a222.281143 222.281143 0 0 1 59.611429 214.747429 14.628571 14.628571 0 0 1-13.750857 10.386286z" fill="#5E7536" p-id="1266"></path><path d="M285.257143 114.176c50.176 0 132.315429 7.972571 180.297143 55.076571 89.819429 87.771429 55.881143 200.045714 55.881143 200.045715s-30.793143-93.184-98.742858-135.972572c-97.645714-61.586286-180.224-117.028571-180.224-117.028571a403.017143 403.017143 0 0 1 42.788572-2.121143m0-29.257143a437.686857 437.686857 0 0 0-46.445714 2.267429 29.257143 29.257143 0 0 0-12.8 53.321143c0.804571 0.585143 84.041143 56.466286 180.955428 117.540571 57.929143 36.571429 86.454857 119.661714 86.747429 120.539429a29.257143 29.257143 0 0 0 27.721143 19.968h0.438857a29.257143 29.257143 0 0 0 27.574857-20.772572c1.609143-5.266286 37.888-130.048-63.414857-229.449143-53.467429-52.443429-138.971429-63.414857-200.777143-63.414857z" fill="#333333" p-id="1267"></path><path d="M529.408 403.456a14.628571 14.628571 0 0 1-13.092571-8.045714c-2.267429-4.534857-55.954286-113.444571 21.430857-221.842286 37.376-52.224 108.982857-63.195429 162.523428-63.195429a414.72 414.72 0 0 1 71.68 6.144 14.628571 14.628571 0 0 1 2.194286 28.086858A553.618286 553.618286 0 0 0 612.937143 248.685714c-54.710857 49.664-68.900571 141.458286-69.046857 142.409143a14.628571 14.628571 0 0 1-12.141715 12.288z" fill="#7DAE54" p-id="1268"></path><path d="M700.269714 125.001143a398.921143 398.921143 0 0 1 68.827429 5.851428s-80.457143 29.257143-165.961143 106.861715c-59.465143 53.906286-73.728 151.113143-73.728 151.113143s-52.882286-104.374857 20.260571-206.774858c33.572571-46.957714 99.693714-57.051429 150.601143-57.051428m0-29.257143c-81.700571 0-141.970286 23.917714-174.372571 69.339429C443.392 280.576 500.809143 397.092571 503.296 402.285714a29.257143 29.257143 0 0 0 26.112 16.018286 33.645714 33.645714 0 0 0 4.681143 0 29.257143 29.257143 0 0 0 24.283428-24.649143c0-0.804571 13.677714-87.771429 64.438858-133.705143a539.867429 539.867429 0 0 1 156.379428-101.010285 29.257143 29.257143 0 0 0-4.461714-56.173715 420.571429 420.571429 0 0 0-74.459429-6.436571z" fill="#333333" p-id="1269"></path><path d="M611.84 430.738286m-80.457143 0a80.457143 80.457143 0 1 0 160.914286 0 80.457143 80.457143 0 1 0-160.914286 0Z" fill="#FAFB6D" p-id="1270"></path><path d="M611.84 364.909714a65.828571 65.828571 0 1 1-65.828571 65.828572 65.828571 65.828571 0 0 1 65.828571-65.828572m0-29.257143a95.085714 95.085714 0 1 0 95.085714 95.085715 95.085714 95.085714 0 0 0-95.085714-95.085715z" fill="#333333" p-id="1271"></path><path d="M502.125714 397.824m-106.057143 0a106.057143 106.057143 0 1 0 212.114286 0 106.057143 106.057143 0 1 0-212.114286 0Z" fill="#FAFB6D" p-id="1272"></path><path d="M502.125714 306.395429a91.428571 91.428571 0 1 1-91.428571 91.428571 91.428571 91.428571 0 0 1 91.428571-91.428571m0-29.257143a120.685714 120.685714 0 1 0 120.685715 120.685714 120.832 120.832 0 0 0-120.685715-120.685714z" fill="#333333" p-id="1273"></path><path d="M465.554286 357.595429a91.648 91.648 0 0 0-51.2 15.872 92.818286 92.818286 0 0 0-3.364572 24.356571 91.428571 91.428571 0 0 0 142.628572 75.556571 91.209143 91.209143 0 0 0-87.771429-115.785142z" fill="#D8CE1B" p-id="1274"></path><path d="M531.236571 326.656a36.571429 36.571429 0 0 0-27.794285 61.586286 36.571429 36.571429 0 0 0 51.712 1.609143 36.571429 36.571429 0 0 0 1.609143-51.638858 36.571429 36.571429 0 0 0-25.526858-11.556571M457.069714 386.194286a21.942857 21.942857 0 0 0-22.601143 21.211428 22.528 22.528 0 0 0 5.924572 15.725715 21.942857 21.942857 0 0 0 37.961143-14.628572 22.528 22.528 0 0 0-5.924572-15.725714 21.942857 21.942857 0 0 0-15.36-6.875429" fill="#F8FFE6" p-id="1275"></path></svg>